<svg width="123" height="17" viewBox="0 0 123 17" fill="none" xmlns="http://www.w3.org/2000/svg">
<path d="M9.59676 16.352C8.35009 16.352 7.19876 16.1613 6.14276 15.78C5.10142 15.384 4.19209 14.8267 3.41476 14.108C2.65209 13.3893 2.05809 12.5387 1.63276 11.556C1.20742 10.5733 0.994758 9.488 0.994758 8.3C0.994758 7.112 1.20742 6.02667 1.63276 5.044C2.05809 4.06133 2.65942 3.21067 3.43676 2.492C4.21409 1.77333 5.13076 1.22333 6.18676 0.842C7.25743 0.446 8.43076 0.248 9.70676 0.248C11.2321 0.248 12.5888 0.504666 13.7768 1.018C14.9794 1.53133 15.9694 2.26467 16.7468 3.218L13.4248 6.144C12.9408 5.58667 12.4128 5.16867 11.8408 4.89C11.2834 4.59667 10.6601 4.45 9.97076 4.45C9.39876 4.45 8.87809 4.538 8.40876 4.714C7.95409 4.89 7.56543 5.14667 7.24276 5.484C6.92009 5.82133 6.67076 6.22467 6.49476 6.694C6.31876 7.16333 6.23076 7.69867 6.23076 8.3C6.23076 8.872 6.31876 9.4 6.49476 9.884C6.67076 10.3533 6.92009 10.7567 7.24276 11.094C7.56543 11.4313 7.94676 11.6953 8.38676 11.886C8.84143 12.062 9.34743 12.15 9.90476 12.15C10.4914 12.15 11.0634 12.0547 11.6208 11.864C12.1781 11.6587 12.7721 11.314 13.4028 10.83L16.3068 14.394C15.3681 15.0247 14.2974 15.5087 13.0948 15.846C11.8921 16.1833 10.7261 16.352 9.59676 16.352ZM11.7968 13.734V7.882H16.3068V14.394L11.7968 13.734ZM18.959 16V0.599999H26.373C27.8103 0.599999 29.0496 0.834666 30.091 1.304C31.147 1.77333 31.961 2.448 32.533 3.328C33.105 4.19333 33.391 5.22 33.391 6.408C33.391 7.596 33.105 8.62267 32.533 9.488C31.961 10.3387 31.147 10.9913 30.091 11.446C29.0496 11.9007 27.8103 12.128 26.373 12.128H21.841L24.151 9.994V16H18.959ZM28.177 16L24.393 10.39H29.893L33.721 16H28.177ZM24.151 10.566L21.841 8.212H26.043C26.7616 8.212 27.2896 8.05067 27.627 7.728C27.979 7.40533 28.155 6.96533 28.155 6.408C28.155 5.85067 27.979 5.41067 27.627 5.088C27.2896 4.76533 26.7616 4.604 26.043 4.604H21.841L24.151 2.25V10.566ZM34.1195 16L40.8515 0.599999H45.9555L52.6875 16H47.3195L42.3475 3.064H44.3715L39.3995 16H34.1195ZM38.1235 13.316L39.4435 9.576H46.5275L47.8475 13.316H38.1235ZM53.9561 16V0.599999H58.2241L64.3841 10.654H62.1401L68.1241 0.599999H72.3921L72.4361 16H67.7061L67.6621 7.728H68.4101L64.3181 14.614H62.0301L57.7621 7.728H58.6861V16H53.9561ZM75.3864 16V0.599999H82.8004C84.2377 0.599999 85.4771 0.834666 86.5184 1.304C87.5744 1.77333 88.3884 2.448 88.9604 3.328C89.5324 4.19333 89.8184 5.22 89.8184 6.408C89.8184 7.596 89.5324 8.62267 88.9604 9.488C88.3884 10.3533 87.5744 11.028 86.5184 11.512C85.4771 11.9813 84.2377 12.216 82.8004 12.216H78.2684L80.5784 9.994V16H75.3864ZM80.5784 10.566L78.2684 8.212H82.4704C83.1891 8.212 83.7171 8.05067 84.0544 7.728C84.4064 7.40533 84.5824 6.96533 84.5824 6.408C84.5824 5.85067 84.4064 5.41067 84.0544 5.088C83.7171 4.76533 83.1891 4.604 82.4704 4.604H78.2684L80.5784 2.25V10.566ZM99.1163 16.352C96.755 16.352 94.9143 15.714 93.5943 14.438C92.2743 13.162 91.6143 11.3727 91.6143 9.07V0.599999H96.8063V8.916C96.8063 10.0893 97.019 10.9253 97.4443 11.424C97.8696 11.908 98.4416 12.15 99.1603 12.15C99.8936 12.15 100.466 11.908 100.876 11.424C101.302 10.9253 101.514 10.0893 101.514 8.916V0.599999H106.618V9.07C106.618 11.3727 105.958 13.162 104.638 14.438C103.318 15.714 101.478 16.352 99.1163 16.352ZM115.18 16.352C113.89 16.352 112.643 16.2053 111.44 15.912C110.238 15.6187 109.248 15.2373 108.47 14.768L110.142 10.984C110.876 11.4093 111.69 11.754 112.584 12.018C113.494 12.2673 114.374 12.392 115.224 12.392C115.723 12.392 116.112 12.3627 116.39 12.304C116.684 12.2307 116.896 12.1353 117.028 12.018C117.16 11.886 117.226 11.732 117.226 11.556C117.226 11.2773 117.072 11.0573 116.764 10.896C116.456 10.7347 116.046 10.6027 115.532 10.5C115.034 10.3827 114.484 10.2653 113.882 10.148C113.281 10.016 112.672 9.84733 112.056 9.642C111.455 9.43667 110.898 9.16533 110.384 8.828C109.886 8.49067 109.482 8.05067 109.174 7.508C108.866 6.95067 108.712 6.26133 108.712 5.44C108.712 4.48667 108.976 3.62133 109.504 2.844C110.047 2.052 110.846 1.42133 111.902 0.952C112.973 0.482666 114.3 0.248 115.884 0.248C116.926 0.248 117.952 0.357999 118.964 0.577999C119.976 0.797999 120.886 1.13533 121.692 1.59L120.13 5.352C119.368 4.97067 118.627 4.68467 117.908 4.494C117.204 4.30333 116.515 4.208 115.84 4.208C115.342 4.208 114.946 4.252 114.652 4.34C114.359 4.428 114.146 4.54533 114.014 4.692C113.897 4.83867 113.838 5 113.838 5.176C113.838 5.44 113.992 5.65267 114.3 5.814C114.608 5.96067 115.012 6.08533 115.51 6.188C116.024 6.29067 116.581 6.40067 117.182 6.518C117.798 6.63533 118.407 6.79667 119.008 7.002C119.61 7.20733 120.16 7.47867 120.658 7.816C121.172 8.15333 121.582 8.59333 121.89 9.136C122.198 9.67867 122.352 10.3533 122.352 11.16C122.352 12.0987 122.081 12.964 121.538 13.756C121.01 14.5333 120.218 15.164 119.162 15.648C118.106 16.1173 116.779 16.352 115.18 16.352Z" fill="white"/>
</svg>
